# xmcd
#
# Track frame offsets:
#	150
#	19017
#	34382
#	53122
#	69980
#	85317
#	102092
#	121797
#	145657
#	168822
#	187742
#	205215
#	228607
#	245272
#	265407
#
# Disc length: 3764 seconds
#
# Revision: 1
# Processed by: cddbd v1.5.1PL0 Copyright (c) Steve Scherf et al.
# Submitted via: CDex 1.50Beta5
#
DISCID=c10eb20f
DTITLE=テレサ テン - テレサ テン
DYEAR=1900
DGENRE=
TTITLE0=時の流れに身をまかせ
TTITLE1=乱されて
TTITLE2=ノスタルジア
TTITLE3=空 港
TTITLE4=笑って乾杯
TTITLE5=雪化粧
TTITLE6=悲しみが涙と踊ってる
TTITLE7=花
TTITLE8=カシオペア
TTITLE9=今でも・・・
TTITLE10=恋唄綴り
TTITLE11=夢立ちぬ
TTITLE12=夕 凪
TTITLE13=想いで迷子
TTITLE14=愛 人
EXTD=
EXTT0=
EXTT1=
EXTT2=
EXTT3=
EXTT4=
EXTT5=
EXTT6=
EXTT7=
EXTT8=
EXTT9=
EXTT10=
EXTT11=
EXTT12=
EXTT13=
EXTT14=
PLAYORDER=
